<svg xmlns="http://www.w3.org/2000/svg" width="806" height="622" fill="none"><path fill="url(#a)" d="M3.031 551.236h62.962v-1H3.031v1Zm0-79.605h62.962v-1H3.031v1Zm0-79.605h62.962v-1H3.031v1Zm0-79.604h62.962v-1H3.031v1Zm0-79.605h62.962v-1H3.031v1Zm0-79.605h62.962v-1H3.031v1Zm0-79.605h62.962v-1H3.031v1Zm82.054 477.629h62.962v-1H85.085v1Zm0-79.605h62.962v-1H85.085v1Zm0-79.605h62.962v-1H85.085v1Zm0-79.604h62.962v-1H85.085v1Zm0-79.605h62.962v-1H85.085v1Zm0-79.605h62.962v-1H85.085v1Zm0-79.605h62.962v-1H85.085v1Zm82.053 477.629H230.1v-1h-62.962v1Zm0-79.605H230.1v-1h-62.962v1Zm0-79.605H230.1v-1h-62.962v1Zm0-79.604H230.1v-1h-62.962v1Zm0-79.605H230.1v-1h-62.962v1Zm0-79.605H230.1v-1h-62.962v1Zm0-79.605H230.1v-1h-62.962v1Zm82.054 477.629h62.962v-1h-62.962v1Zm0-79.605h62.962v-1h-62.962v1Zm0-79.605h62.962v-1h-62.962v1Zm0-79.604h62.962v-1h-62.962v1Zm0-79.605h62.962v-1h-62.962v1Zm0-79.605h62.962v-1h-62.962v1Zm0-79.605h62.962v-1h-62.962v1Zm82.054 477.629h62.962v-1h-62.962v1Zm0-79.605h62.962v-1h-62.962v1Zm0-79.605h62.962v-1h-62.962v1Zm0-79.604h62.962v-1h-62.962v1Zm0-79.605h62.962v-1h-62.962v1Zm0-79.605h62.962v-1h-62.962v1Zm0-79.605h62.962v-1h-62.962v1Zm82.053 477.629h62.962v-1h-62.962v1Zm0-79.605h62.962v-1h-62.962v1Zm0-79.605h62.962v-1h-62.962v1Zm0-79.604h62.962v-1h-62.962v1Zm0-79.605h62.962v-1h-62.962v1Zm0-79.605h62.962v-1h-62.962v1Zm0-79.605h62.962v-1h-62.962v1Zm82.054 477.629h62.962v-1h-62.962v1Zm0-79.605h62.962v-1h-62.962v1Zm0-79.605h62.962v-1h-62.962v1Zm0-79.604h62.962v-1h-62.962v1Zm0-79.605h62.962v-1h-62.962v1Zm0-79.605h62.962v-1h-62.962v1Zm0-79.605h62.962v-1h-62.962v1Zm82.053 477.629h62.963v-1h-62.963v1Zm0-79.605h62.963v-1h-62.963v1Zm0-79.605h62.963v-1h-62.963v1Zm0-79.604h62.963v-1h-62.963v1Zm0-79.605h62.963v-1h-62.963v1Zm0-79.605h62.963v-1h-62.963v1Zm0-79.605h62.963v-1h-62.963v1Zm82.054 477.629h62.962v-1H659.46v1Zm0-79.605h62.962v-1H659.46v1Zm0-79.605h62.962v-1H659.46v1Zm0-79.604h62.962v-1H659.46v1Zm0-79.605h62.962v-1H659.46v1Zm0-79.605h62.962v-1H659.46v1Zm0-79.605h62.962v-1H659.46v1ZM71.992 557.235v62.953h1v-62.953h-1Zm0-79.605v62.953h1V477.63h-1Zm0-79.605v62.953h1v-62.953h-1Zm0-79.605v62.953h1V318.42h-1Zm0-79.605v62.953h1v-62.953h-1Zm0-79.605v62.953h1V159.21h-1Zm0-79.605v62.953h1V79.605h-1Zm0-79.605v62.953h1V0h-1Zm82.054 557.235v62.953h1v-62.953h-1Zm0-79.605v62.953h1V477.63h-1Zm0-79.605v62.953h1v-62.953h-1Zm0-79.605v62.953h1V318.42h-1Zm0-79.605v62.953h1v-62.953h-1Zm0-79.605v62.953h1V159.21h-1Zm0-79.605v62.953h1V79.605h-1Zm0-79.605v62.953h1V0h-1ZM236.1 557.235v62.953h1v-62.953h-1Zm0-79.605v62.953h1V477.63h-1Zm0-79.605v62.953h1v-62.953h-1Zm0-79.605v62.953h1V318.42h-1Zm0-79.605v62.953h1v-62.953h-1Zm0-79.605v62.953h1V159.21h-1Zm0-79.605v62.953h1V79.605h-1ZM236.1 0v62.953h1V0h-1Zm82.053 557.235v62.953h1v-62.953h-1Zm0-79.605v62.953h1V477.63h-1Zm0-79.605v62.953h1v-62.953h-1Zm0-79.605v62.953h1V318.42h-1Zm0-79.605v62.953h1v-62.953h-1Zm0-79.605v62.953h1V159.21h-1Zm0-79.605v62.953h1V79.605h-1Zm0-79.605v62.953h1V0h-1Zm82.054 557.235v62.953h1v-62.953h-1Zm0-79.605v62.953h1V477.63h-1Zm0-79.605v62.953h1v-62.953h-1Zm0-79.605v62.953h1V318.42h-1Zm0-79.605v62.953h1v-62.953h-1Zm0-79.605v62.953h1V159.21h-1Zm0-79.605v62.953h1V79.605h-1Zm0-79.605v62.953h1V0h-1Zm82.053 557.235v62.953h1v-62.953h-1Zm0-79.605v62.953h1V477.63h-1Zm0-79.605v62.953h1v-62.953h-1Zm0-79.605v62.953h1V318.42h-1Zm0-79.605v62.953h1v-62.953h-1Zm0-79.605v62.953h1V159.21h-1Zm0-79.605v62.953h1V79.605h-1Zm0-79.605v62.953h1V0h-1Zm82.054 557.235v62.953h1v-62.953h-1Zm0-79.605v62.953h1V477.63h-1Zm0-79.605v62.953h1v-62.953h-1Zm0-79.605v62.953h1V318.42h-1Zm0-79.605v62.953h1v-62.953h-1Zm0-79.605v62.953h1V159.21h-1Zm0-79.605v62.953h1V79.605h-1Zm0-79.605v62.953h1V0h-1Zm82.054 557.235v62.953h1v-62.953h-1Zm0-79.605v62.953h1V477.63h-1Zm0-79.605v62.953h1v-62.953h-1Zm0-79.605v62.953h1V318.42h-1Zm0-79.605v62.953h1v-62.953h-1Zm0-79.605v62.953h1V159.21h-1Zm0-79.605v62.953h1V79.605h-1Zm0-79.605v62.953h1V0h-1ZM.646 560.025l61.338 61.329.707-.708-61.337-61.328-.708.707Zm0-79.605 61.338 61.329.707-.708-61.337-61.328-.708.707Zm0-79.605 61.338 61.329.707-.708-61.337-61.328-.708.707Zm0-79.605 61.338 61.329.707-.707-61.337-61.329-.708.707Zm0-79.605 61.338 61.329.707-.707-61.337-61.329-.708.707Zm0-79.605 61.338 61.329.707-.707-61.337-61.329-.708.707Zm0-79.605 61.338 61.329.707-.707L1.354 81.688l-.708.707Zm0-79.605L61.984 64.12l.707-.707L1.354 2.083l-.708.707ZM82.7 560.025l61.337 61.329.707-.708-61.337-61.328-.707.707Zm0-79.605 61.337 61.329.707-.708-61.337-61.328-.707.707Zm0-79.605 61.337 61.329.707-.708-61.337-61.328-.707.707Zm0-79.605 61.337 61.329.707-.707-61.337-61.329-.707.707Zm0-79.605 61.337 61.329.707-.707-61.337-61.329-.707.707Zm0-79.605 61.337 61.329.707-.707-61.337-61.329-.707.707Zm0-79.605 61.337 61.329.707-.707-61.337-61.329-.707.707Zm0-79.605 61.337 61.329.707-.707L83.407 2.083l-.707.707Zm82.054 557.235 61.337 61.329.707-.708-61.337-61.328-.707.707Zm0-79.605 61.337 61.329.707-.708-61.337-61.328-.707.707Zm0-79.605 61.337 61.329.707-.708-61.337-61.328-.707.707Zm0-79.605 61.337 61.329.707-.707-61.337-61.329-.707.707Zm0-79.605 61.337 61.329.707-.707-61.337-61.329-.707.707Zm0-79.605 61.337 61.329.707-.707-61.337-61.329-.707.707Zm0-79.605 61.337 61.329.707-.707-61.337-61.329-.707.707Zm0-79.605 61.337 61.329.707-.707-61.337-61.329-.707.707Zm82.053 557.235 61.338 61.329.707-.708-61.338-61.328-.707.707Zm0-79.605 61.338 61.329.707-.708-61.338-61.328-.707.707Zm0-79.605 61.338 61.329.707-.708-61.338-61.328-.707.707Zm0-79.605 61.338 61.329.707-.707-61.338-61.329-.707.707Zm0-79.605 61.338 61.329.707-.707-61.338-61.329-.707.707Zm0-79.605 61.338 61.329.707-.707-61.338-61.329-.707.707Zm0-79.605 61.338 61.329.707-.707-61.338-61.329-.707.707Zm0-79.605 61.338 61.329.707-.707-61.338-61.329-.707.707Zm82.054 557.235 61.337 61.329.707-.708-61.337-61.328-.707.707Zm0-79.605 61.337 61.329.707-.708-61.337-61.328-.707.707Zm0-79.605 61.337 61.329.707-.708-61.337-61.328-.707.707Zm0-79.605 61.337 61.329.707-.707-61.337-61.329-.707.707Zm0-79.605 61.337 61.329.707-.707-61.337-61.329-.707.707Zm0-79.605 61.337 61.329.707-.707-61.337-61.329-.707.707Zm0-79.605 61.337 61.329.707-.707-61.337-61.329-.707.707Zm0-79.605 61.337 61.329.707-.707-61.337-61.329-.707.707Zm82.054 557.235 61.337 61.329.707-.708-61.337-61.328-.707.707Zm0-79.605 61.337 61.329.707-.708-61.337-61.328-.707.707Zm0-79.605 61.337 61.329.707-.708-61.337-61.328-.707.707Zm0-79.605 61.337 61.329.707-.707-61.337-61.329-.707.707Zm0-79.605 61.337 61.329.707-.707-61.337-61.329-.707.707Zm0-79.605 61.337 61.329.707-.707-61.337-61.329-.707.707Zm0-79.605 61.337 61.329.707-.707-61.337-61.329-.707.707Zm0-79.605 61.337 61.329.707-.707-61.337-61.329-.707.707Zm82.053 557.235 61.337 61.329.708-.708-61.338-61.328-.707.707Zm0-79.605 61.337 61.329.708-.708-61.338-61.328-.707.707Zm0-79.605 61.337 61.329.708-.708-61.338-61.328-.707.707Zm0-79.605 61.337 61.329.708-.707-61.338-61.329-.707.707Zm0-79.605 61.337 61.329.708-.707-61.338-61.329-.707.707Zm0-79.605 61.337 61.329.708-.707-61.338-61.329-.707.707Zm0-79.605 61.337 61.329.708-.707-61.338-61.329-.707.707Zm0-79.605 61.337 61.329.708-.707-61.338-61.329-.707.707Zm82.054 557.235 61.337 61.329.707-.708-61.337-61.328-.707.707Zm0-79.605 61.337 61.329.707-.708-61.337-61.328-.707.707Zm0-79.605 61.337 61.329.707-.708-61.337-61.328-.707.707Zm0-79.605 61.337 61.329.707-.707-61.337-61.329-.707.707Zm0-79.605 61.337 61.329.707-.707-61.337-61.329-.707.707Zm0-79.605 61.337 61.329.707-.707-61.337-61.329-.707.707Zm0-79.605 61.337 61.329.707-.707-61.337-61.329-.707.707Zm0-79.605 61.337 61.329.707-.707-61.337-61.329-.707.707Zm82.054 557.235 61.337 61.329.707-.708-61.337-61.328-.707.707Zm0-79.605 61.337 61.329.707-.708-61.337-61.328-.707.707Zm0-79.605 61.337 61.329.707-.708-61.337-61.328-.707.707Zm0-79.605 61.337 61.329.707-.707-61.337-61.329-.707.707Zm0-79.605 61.337 61.329.707-.707-61.337-61.329-.707.707Zm0-79.605 61.337 61.329.707-.707-61.337-61.329-.707.707Zm0-79.605 61.337 61.329.707-.707-61.337-61.329-.707.707Zm0-79.605 61.337 61.329.707-.707-61.337-61.329-.707.707Zm85.962 548.446H806v-1h-62.962v1Zm0-79.605H806v-1h-62.962v1Zm0-79.605H806v-1h-62.962v1Zm0-79.604H806v-1h-62.962v1Zm0-79.605H806v-1h-62.962v1Zm0-79.605H806v-1h-62.962v1Zm0-79.605H806v-1h-62.962v1Zm-13.092 483.628v62.953h1v-62.953h-1Zm0-79.605v62.953h1V477.63h-1Zm0-79.605v62.953h1v-62.953h-1Zm0-79.605v62.953h1V318.42h-1Zm0-79.605v62.953h1v-62.953h-1Zm0-79.605v62.953h1V159.21h-1Zm0-79.605v62.953h1V79.605h-1Zm0-79.605v62.953h1V0h-1Zm10.708 560.025 61.337 61.329.707-.708-61.337-61.328-.707.707Zm0-79.605 61.337 61.329.707-.708-61.337-61.328-.707.707Zm0-79.605 61.337 61.329.707-.708-61.337-61.328-.707.707Zm0-79.605 61.337 61.329.707-.707-61.337-61.329-.707.707Zm0-79.605 61.337 61.329.707-.707-61.337-61.329-.707.707Zm0-79.605 61.337 61.329.707-.707-61.337-61.329-.707.707Zm0-79.605 61.337 61.329.707-.707-61.337-61.329-.707.707Zm0-79.605 61.337 61.329.707-.707-61.337-61.329-.707.707Z"/><defs><linearGradient id="a" x1="231.241" x2="684.601" y1="444.469" y2="19.663" gradientUnits="userSpaceOnUse"><stop stop-color="#1A1A1A"/><stop offset="1" stop-color="#7A3EEE"/></linearGradient></defs></svg>